<svg version="1.1" id="Layer_1" xmlns="http://www.w3.org/2000/svg" xmlns:xlink="http://www.w3.org/1999/xlink" x="0px" y="0px" viewBox="0 0 334.9 171" style="enable-background:new 0 0 334.9 171;" xml:space="preserve">
<path d="M0,171V35.5h12.8V53h0.4c3-3.9,5.7-7,8.2-9c3.9-3.3,8.5-6,13.8-8.1c5.3-2,11.1-3,17.5-3c7.8,0,15,1.4,21.5,4.3 c6.5,2.8,12,6.4,16.3,10.8c4.4,4.4,7.9,9.2,10.4,14.6c3.5,7.3,5.3,15,5.3,23c0,9.3-2.3,18-7,26.3c-4.7,8.3-11.2,14.7-19.6,19.4 c-8.4,4.7-17.3,7-26.7,7c-6.5,0-12.4-1-17.8-3.1c-5.4-2.1-10-4.8-14-8.1c-2.6-2.2-5.3-5.2-8-8.9h-0.4V171L0,171L0,171z M93.3,85.9 c0-6-1.1-11.9-3.4-17.6c-1.7-3.9-4.2-7.7-7.4-11.2c-3.3-3.5-7.5-6.5-12.6-9c-5.1-2.4-10.9-3.7-17.3-3.7c-7.2,0-14,1.8-20.2,5.4 c-6.3,3.6-11.2,8.6-14.8,15.2c-3.6,6.5-5.4,13.5-5.4,20.8c0,7.2,1.8,14,5.4,20.5s8.5,11.4,14.9,15c6.3,3.6,13.1,5.4,20.4,5.4 c7.3,0,14.3-1.8,20.7-5.4c6.5-3.6,11.4-8.6,14.8-15C91.6,99.9,93.3,93.1,93.3,85.9z"/>
<path d="M196.1,35.5v100.3H184v-15.6h-0.4c-3,5.7-7.3,10.1-12.8,13.3c-5.5,3.2-12.1,4.7-19.7,4.7c-7.7,0-14.6-1.5-20.7-4.5 c-6.1-3-11-6.9-14.6-11.6c-2.3-3.1-4.2-7.2-5.6-12.4c-1.4-5.1-2.1-11.4-2.1-18.9V35.5h12.8v55.2c0,12.5,2.7,21.6,8.1,27.4 c5.4,5.8,12.9,8.6,22.7,8.6c5.2,0,9.8-1,13.8-3c4-2,7.5-4.8,10.6-8.6c2-2.4,3.7-5.8,5.1-10.2c1.4-4.4,2.1-9.9,2.1-16.4v-53H196.1z" />
<path d="M202.5,135.8V0h12.8v53h0.4c2.8-3.6,5.5-6.6,8-8.8c2.5-2.2,5.6-4.2,9-6s7.1-3.1,10.9-4c3.8-0.9,7.7-1.3,11.8-1.3 c7.5,0,14.4,1.4,21,4.2c6.5,2.8,12,6.4,16.4,10.8c4.4,4.4,8,9.3,10.6,14.6c3.5,7.3,5.3,15,5.3,23c0,9.3-2.3,18-6.9,26.3 c-4.6,8.3-11.1,14.8-19.5,19.4c-8.4,4.6-17.3,6.9-27,6.9c-6.2,0-11.9-0.9-16.9-2.6c-5.1-1.8-9.6-4.3-13.5-7.5 c-2.9-2.4-5.9-5.7-9.2-9.9h-0.4v17.6L202.5,135.8L202.5,135.8z M214.6,85.7c0,7.2,1.7,14,5.2,20.4c3.5,6.4,8.4,11.5,14.9,15.1 c6.4,3.6,13.3,5.5,20.4,5.5c7.3,0,14.3-1.7,20.8-5.2c6.5-3.5,11.5-8.4,14.9-14.9s5.1-13.5,5.1-21.1c0-7.5-1.8-14.5-5.3-20.9 c-3.5-6.4-8.5-11.3-15-14.9c-6.4-3.5-13.3-5.3-20.5-5.3c-7.3,0-14.2,1.8-20.5,5.5c-6.3,3.7-11.2,8.8-14.7,15.3 S214.6,78.5,214.6,85.7z"/>
<polygon points="334.9,151 324.9,141 333.1,136.9 309.7,129.1 317.5,152.5 321.5,144.3 331.5,154.3 "/>
</svg>
