<?xml version="1.0" standalone="no"?>
<!DOCTYPE svg PUBLIC "-//W3C//DTD SVG 20010904//EN"
 "http://www.w3.org/TR/2001/REC-SVG-20010904/DTD/svg10.dtd">
<svg version="1.0" xmlns="http://www.w3.org/2000/svg"
 width="1000.000000pt" height="1000.000000pt" viewBox="0 0 1000.000000 1000.000000"
 preserveAspectRatio="xMidYMid meet">
<metadata>
Created by potrace 1.11, written by Peter Selinger 2001-2013
</metadata>
<g transform="translate(0.000000,1000.000000) scale(0.100000,-0.100000)"
fill="#000000" stroke="none">
<path d="M4897 9094 c-1 -1 -59 -5 -129 -8 -130 -7 -155 -9 -288 -27 -108 -15
-176 -26 -270 -44 -183 -35 -423 -104 -625 -180 -208 -77 -501 -217 -633 -301
-29 -19 -55 -34 -58 -34 -11 0 -347 -230 -364 -249 -3 -3 -30 -25 -60 -48 -30
-23 -68 -54 -85 -68 -357 -309 -593 -583 -851 -985 -80 -126 -174 -305 -273
-524 -102 -223 -218 -600 -266 -861 -11 -60 -15 -84 -21 -125 -3 -25 -7 -52
-9 -60 -2 -8 -7 -46 -11 -85 -3 -38 -8 -79 -10 -90 -23 -113 -22 -663 1 -830
2 -16 6 -52 9 -80 5 -45 36 -241 51 -320 35 -184 157 -588 215 -710 5 -11 20
-48 34 -82 71 -174 207 -428 331 -618 60 -93 255 -359 274 -375 3 -3 28 -32
56 -65 132 -159 403 -417 595 -566 367 -285 796 -513 1240 -658 115 -37 353
-102 425 -115 44 -9 196 -35 225 -40 36 -6 107 -15 170 -22 30 -3 71 -8 90
-11 63 -9 583 -11 670 -3 47 5 112 11 145 14 59 6 191 24 230 32 11 3 36 7 55
10 19 3 67 12 105 21 39 8 78 16 87 18 190 40 550 162 753 255 750 342 1361
879 1801 1582 66 105 98 162 180 318 36 70 86 184 138 315 27 66 52 129 57
140 33 79 116 369 148 525 20 92 24 113 36 194 4 21 8 47 10 57 2 10 7 49 10
86 4 37 9 70 10 73 18 30 26 590 12 775 -9 108 -9 107 -33 270 -9 61 -18 126
-21 145 -2 19 -8 49 -13 65 -5 17 -14 57 -20 90 -27 139 -145 523 -180 587 -6
10 -10 22 -10 28 0 6 -13 40 -30 75 -16 35 -30 67 -30 70 0 16 -163 331 -224
432 -337 567 -806 1045 -1368 1394 -311 193 -636 338 -1033 459 -99 30 -394
94 -482 105 -27 3 -59 8 -73 10 -55 10 -175 22 -300 31 -78 5 -388 12 -393 8z"/>
</g>
</svg>
